<?xml version="1.0" standalone="no"?>
<!DOCTYPE svg PUBLIC "-//W3C//DTD SVG 20010904//EN"
 "http://www.w3.org/TR/2001/REC-SVG-20010904/DTD/svg10.dtd">
<svg version="1.0" xmlns="http://www.w3.org/2000/svg"
 width="923.000000pt" height="1023.000000pt" viewBox="0 0 523.000000 523.000000"
 preserveAspectRatio="xMidYMid meet">
<metadata>
Created by potrace 1.16, written by Peter Selinger 2001-2019
</metadata>
<g transform="translate(-300.000000,743.000000) scale(.150000,-0.130000)"
fill="#b19dd0" stroke="none">
<path d="M3379 6495 c-541 -74 -1014 -379 -1219 -785 -73 -146 -116 -302 -122
-445 l-2 -60 110 0 109 0 2 40 c28 456 358 837 870 1004 189 62 287 76 518 76
166 0 219 -4 310 -23 304 -61 559 -189 751 -379 186 -183 295 -405 313 -638
l6 -80 104 -3 c57 -1 107 1 111 5 13 15 -9 198 -35 288 -127 450 -547 821
-1082 956 -227 57 -519 75 -744 44z"/>
<path d="M2910 3705 l0 -1285 270 0 270 0 0 495 0 495 473 2 472 3 3 233 2
232 -475 0 -475 0 0 320 0 320 560 0 560 0 -2 233 -3 232 -827 3 -828 2 0
-1285z"/>
<path d="M2041 2208 c44 -590 598 -1089 1327 -1194 139 -20 405 -20 544 0 380
55 702 206 954 448 230 222 355 479 377 776 l5 62 -112 0 -113 0 -6 -87 c-33
-484 -493 -910 -1093 -1013 -165 -29 -404 -29 -568 0 -399 69 -737 274 -932
566 -98 148 -150 292 -161 447 l-6 87 -111 0 -111 0 6 -92z"/>
</g>

</svg>
